<svg version="1" xmlns="http://www.w3.org/2000/svg" width="933.333" height="933.333" viewBox="0 0 700.000000 700.000000"><path d="M329.8.5c-.1.1-4.1.5-8.8.9-10 .7-22.5 2.2-29.5 3.6-2.7.5-6.1 1.2-7.5 1.4-27.9 5.1-59.1 15.4-85.5 28.2-48.3 23.3-89.7 56.5-122.9 98.4C35.7 183.3 11 242.5 2.5 308c-2.6 20.6-2.7 72.5 0 83 .2.8.6 4.2 1 7.5.6 5.5 2.5 16.7 4.9 28 1.5 7.2 6 23.6 9 32.3l3.4 10.3-5.3 11.2C5.2 501.9.9 519.6.5 542.5c-.2 12.8.9 27.1 2.9 36 3 13.6 5.9 22 11.6 34 20.3 42.8 60.1 74.1 106.7 84.1 4.6.9 8.6 1.5 8.9 1.1.5-.4.9-273.9.5-298.3l-.1-4.2-8 1.8c-4.4 1-8.4 1.9-8.8 1.9-9.3 2-25.3 8.6-37.5 15.5-2.7 1.5-5 2.6-5.2 2.4-.5-.5-3.3-17.5-4-24.3-.3-3.3-.8-8-1.1-10.5-.3-2.5-.5-11.7-.5-20.5 0-14.9.3-21 1.7-32.5.3-2.5.7-5.7.8-7 3.3-28.3 14-62 28.8-91 24.1-47 62.7-87.9 108.8-115.4 8.4-5 34.5-17.4 44-20.9 21.6-8 46.7-14 67.5-16.2 3.3-.3 8-.8 10.5-1.1 5.5-.6 40.5-.6 44 0 1.4.2 5.7.7 9.5 1.1 3.9.3 9.3 1 12 1.5 2.8.5 6.8 1.2 9 1.5 2.2.3 7.8 1.5 12.4 2.6 44.1 10.4 87.4 32.5 121.6 62.1 9.4 8.1 26.8 26.3 35.1 36.7 32.1 40 53.8 90.2 59.9 138.1.3 2.5.7 6.1 1 8 1.6 12.5 2.3 47.1 1.1 54-.3 1.4-.7 5.6-1.1 9.3-.3 3.7-.8 7.6-.9 8.5-.2.9-.9 5-1.6 8.9-.6 4-1.4 7.3-1.6 7.3-.6 0-9.5-4.9-10.9-6-4-3.1-27.2-11.4-38-13.5-3.8-.7-7.8-1.7-8.7-2-1.6-.6-1.8.1-1.9 8.1-.3 45.8 0 293.6.4 294 .9 1 14.4-1.9 24.7-5.3 54.6-17.7 94.4-64.1 103.9-121.2 1.4-8.8 1.8-15.2 1.6-27.5-.2-8.9-.6-17.5-1-19.1-2.2-10.7-4.7-20.9-5.1-21.7-.3-.4-.7-1.8-.9-3.1-.6-3.3-5.1-13.9-9.5-22.8l-3.9-7.7 3.9-11.8c3.4-10.3 7.3-24.5 8.6-30.9 2.1-10.4 4.5-24 4.9-28.5.4-3 .8-6.1 1.1-6.8 2.5-7.7 2.5-61 0-81.2-.2-1.9-.7-5.8-1-8.6-.4-2.8-.8-5.9-1-7-.2-1-1.1-6-2.1-10.9-13.8-74-53.3-143.5-110.4-194.3-23.7-21.1-43.6-34.9-72.1-50-27.9-14.7-69.1-28.8-98.5-33.6-3.3-.5-22.4-3.2-29.5-4.2-4.7-.6-52.6-1.5-53.2-.9z"/><path d="M317.9 144.3c-.1.1-.3 51.6-.4 114.4l-.3 114.3h183.7l-.1-32.5c0-29.3-.2-32.5-1.7-32.6-.9 0-27.4-.1-58.8-.1-40.7-.1-57.3-.4-57.4-1.2-.1-.6-.2-37.3-.3-81.6l-.1-80.5-32.2-.2c-17.8-.1-32.4-.1-32.4 0zM153.4 393.9c-.2.2-.4 69.2-.4 153.3V700h23.3c13.7 0 24.8-.5 27.2-1.1 5.9-1.6 12.9-9.2 14.3-15.5 1.5-6.6 1.5-267.1.1-272.9-1.6-6-5.4-10.9-11-13.9l-4.9-2.7-24.1-.2c-13.2-.1-24.3 0-24.5.2zM502.5 394.1c-6.9.7-10.6 2.4-15.3 6.9-6.4 6.4-6.1-.1-6.1 146.7.1 93.5.4 134.3 1.2 136.8 1.5 4.9 7.1 11.1 12 13.4 3.8 1.8 6.8 2 28.5 2.1l24.2.1V394l-2.2-.1c-10.4-.4-37.5-.3-42.3.2z"/></svg>