<?xml version="1.0" encoding="UTF-8" standalone="no"?><!DOCTYPE svg PUBLIC "-//W3C//DTD SVG 1.1//EN" "http://www.w3.org/Graphics/SVG/1.1/DTD/svg11.dtd"><svg width="100%" height="100%" viewBox="0 0 32 32" version="1.1" xmlns="http://www.w3.org/2000/svg" xmlns:xlink="http://www.w3.org/1999/xlink" xml:space="preserve" xmlns:serif="http://www.serif.com/" style="fill-rule:evenodd;clip-rule:evenodd;stroke-linejoin:round;stroke-miterlimit:1.41421;"><path d="M14.509,6.587l2.979,-0.001l0.003,10.462l-2.979,0l-0.003,-10.461Z" style="fill:#50c3bd;"/><path d="M22.89,14.067l0.001,2.979l-8.381,0.002l-0.001,-2.979l8.381,-0.002Z" style="fill:#50c3bd;"/><path d="M9,18l-2,0l0,14l2,0c0.55,0 1,-0.45 1,-1l0,-12c0,-0.55 -0.45,-1 -1,-1Z" style="fill:#50c3bd;"/><path d="M23,18c-0.55,0 -1,0.45 -1,1l0,12c0,0.55 0.45,1 1,1l2,0l0,-14l-2,0Z" style="fill:#50c3bd;"/><path d="M32,16c0,-8.837 -7.163,-16 -16,-16c-8.837,0 -16,7.163 -16,16c0,1.919 0.338,3.759 0.958,5.464c-0.609,1.038 -0.958,2.246 -0.958,3.536c0,3.526 2.608,6.443 6,6.929l0,-13.857c-0.997,0.143 -1.927,0.495 -2.742,1.012c-0.168,-0.835 -0.258,-1.699 -0.258,-2.584c0,-7.18 5.82,-13 13,-13c7.18,0 13,5.82 13,13c0,0.885 -0.088,1.749 -0.257,2.584c-0.816,-0.517 -1.745,-0.87 -2.743,-1.013l0,13.858c3.392,-0.485 6,-3.402 6,-6.929c0,-1.29 -0.349,-2.498 -0.958,-3.536c0.62,-1.705 0.958,-3.545 0.958,-5.465l0,0.001Z" style="fill:#50c3bd;"/></svg>